<mxfile host="Electron" modified="2024-05-28T14:25:50.573Z" agent="Mozilla/5.0 (Windows NT 10.0; Win64; x64) AppleWebKit/537.36 (KHTML, like Gecko) draw.io/24.4.0 Chrome/120.0.6099.109 Electron/28.1.0 Safari/537.36" etag="kvTfzbhhTLqMtUDRJ500" version="24.4.0" type="device">
  <diagram name="Page-1" id="0ZvJc8VBqVqoVjzm7UsO">
    <mxGraphModel dx="1102" dy="712" grid="1" gridSize="10" guides="1" tooltips="1" connect="1" arrows="1" fold="1" page="1" pageScale="1" pageWidth="827" pageHeight="1169" math="0" shadow="0">
      <root>
        <mxCell id="0" />
        <mxCell id="1" parent="0" />
        <mxCell id="ghpKK2p6EN2w0FAvCqeB-16" style="rounded=0;orthogonalLoop=1;jettySize=auto;html=1;entryX=0;entryY=1;entryDx=0;entryDy=0;endArrow=none;endFill=0;" parent="1" source="ghpKK2p6EN2w0FAvCqeB-2" target="ghpKK2p6EN2w0FAvCqeB-11" edge="1">
          <mxGeometry relative="1" as="geometry" />
        </mxCell>
        <mxCell id="ghpKK2p6EN2w0FAvCqeB-17" style="rounded=0;orthogonalLoop=1;jettySize=auto;html=1;entryX=0;entryY=0.5;entryDx=0;entryDy=0;endArrow=none;endFill=0;" parent="1" source="ghpKK2p6EN2w0FAvCqeB-2" target="ghpKK2p6EN2w0FAvCqeB-12" edge="1">
          <mxGeometry relative="1" as="geometry" />
        </mxCell>
        <mxCell id="ghpKK2p6EN2w0FAvCqeB-18" style="rounded=0;orthogonalLoop=1;jettySize=auto;html=1;entryX=0;entryY=0.5;entryDx=0;entryDy=0;endArrow=none;endFill=0;" parent="1" source="ghpKK2p6EN2w0FAvCqeB-2" target="ghpKK2p6EN2w0FAvCqeB-13" edge="1">
          <mxGeometry relative="1" as="geometry" />
        </mxCell>
        <mxCell id="ghpKK2p6EN2w0FAvCqeB-19" style="rounded=0;orthogonalLoop=1;jettySize=auto;html=1;endArrow=none;endFill=0;" parent="1" source="ghpKK2p6EN2w0FAvCqeB-2" target="ghpKK2p6EN2w0FAvCqeB-14" edge="1">
          <mxGeometry relative="1" as="geometry" />
        </mxCell>
        <mxCell id="ghpKK2p6EN2w0FAvCqeB-2" value="Пользователь" style="shape=umlActor;verticalLabelPosition=bottom;verticalAlign=top;html=1;" parent="1" vertex="1">
          <mxGeometry x="90" y="180" width="30" height="60" as="geometry" />
        </mxCell>
        <mxCell id="ghpKK2p6EN2w0FAvCqeB-21" style="rounded=0;orthogonalLoop=1;jettySize=auto;html=1;entryX=0;entryY=0.5;entryDx=0;entryDy=0;endArrow=none;endFill=0;" parent="1" source="ghpKK2p6EN2w0FAvCqeB-3" target="ghpKK2p6EN2w0FAvCqeB-10" edge="1">
          <mxGeometry relative="1" as="geometry" />
        </mxCell>
        <mxCell id="ghpKK2p6EN2w0FAvCqeB-3" value="Ресторан" style="shape=umlActor;verticalLabelPosition=bottom;verticalAlign=top;html=1;" parent="1" vertex="1">
          <mxGeometry x="90" y="340" width="30" height="60" as="geometry" />
        </mxCell>
        <mxCell id="ghpKK2p6EN2w0FAvCqeB-26" style="rounded=0;orthogonalLoop=1;jettySize=auto;html=1;entryX=0;entryY=0.5;entryDx=0;entryDy=0;endArrow=none;endFill=0;" parent="1" source="ghpKK2p6EN2w0FAvCqeB-4" target="ghpKK2p6EN2w0FAvCqeB-24" edge="1">
          <mxGeometry relative="1" as="geometry" />
        </mxCell>
        <mxCell id="ghpKK2p6EN2w0FAvCqeB-27" style="rounded=0;orthogonalLoop=1;jettySize=auto;html=1;endArrow=none;endFill=0;" parent="1" source="ghpKK2p6EN2w0FAvCqeB-4" target="ghpKK2p6EN2w0FAvCqeB-25" edge="1">
          <mxGeometry relative="1" as="geometry" />
        </mxCell>
        <mxCell id="ghpKK2p6EN2w0FAvCqeB-4" value="Курьер" style="shape=umlActor;verticalLabelPosition=bottom;verticalAlign=top;html=1;" parent="1" vertex="1">
          <mxGeometry x="90" y="500" width="30" height="60" as="geometry" />
        </mxCell>
        <mxCell id="ghpKK2p6EN2w0FAvCqeB-10" value="Редактировать меню" style="ellipse;whiteSpace=wrap;html=1;" parent="1" vertex="1">
          <mxGeometry x="240" y="340" width="140" height="60" as="geometry" />
        </mxCell>
        <mxCell id="ghpKK2p6EN2w0FAvCqeB-11" value="Просмотреть меню" style="ellipse;whiteSpace=wrap;html=1;" parent="1" vertex="1">
          <mxGeometry x="220" y="50" width="140" height="60" as="geometry" />
        </mxCell>
        <mxCell id="ghpKK2p6EN2w0FAvCqeB-12" value="Сделать заказ" style="ellipse;whiteSpace=wrap;html=1;" parent="1" vertex="1">
          <mxGeometry x="360" y="100" width="140" height="70" as="geometry" />
        </mxCell>
        <mxCell id="ghpKK2p6EN2w0FAvCqeB-13" value="Узнать статус заказа" style="ellipse;whiteSpace=wrap;html=1;" parent="1" vertex="1">
          <mxGeometry x="360" y="180" width="140" height="70" as="geometry" />
        </mxCell>
        <mxCell id="ghpKK2p6EN2w0FAvCqeB-14" value="Оплатить заказ" style="ellipse;whiteSpace=wrap;html=1;" parent="1" vertex="1">
          <mxGeometry x="220" y="240" width="140" height="70" as="geometry" />
        </mxCell>
        <mxCell id="ghpKK2p6EN2w0FAvCqeB-24" value="Принять заказ" style="ellipse;whiteSpace=wrap;html=1;" parent="1" vertex="1">
          <mxGeometry x="240" y="460" width="140" height="60" as="geometry" />
        </mxCell>
        <mxCell id="ghpKK2p6EN2w0FAvCqeB-25" value="Доставить заказ" style="ellipse;whiteSpace=wrap;html=1;" parent="1" vertex="1">
          <mxGeometry x="240" y="530" width="140" height="70" as="geometry" />
        </mxCell>
      </root>
    </mxGraphModel>
  </diagram>
</mxfile>
